<?xml version="1.0" encoding="UTF-8"?>
<svg version="1.1" xmlns="http://www.w3.org/2000/svg" width="512" height="512">
<path d="M0 0 C0.89927467 -0.00623996 1.79854935 -0.01247993 2.72507477 -0.01890898 C5.73300026 -0.03484095 8.74011563 -0.02223377 11.74804688 -0.00964355 C13.90666171 -0.01506457 16.06527283 -0.02218711 18.22387695 -0.03088379 C24.08333402 -0.04912236 29.94250943 -0.04204725 35.80197144 -0.02936745 C41.93309286 -0.01924264 48.06419013 -0.02863169 54.1953125 -0.03491211 C64.49158052 -0.04219 74.78773378 -0.032597 85.08398438 -0.0135498 C96.98900804 0.00821911 108.89375769 0.00116785 120.79877472 -0.02085543 C131.01888627 -0.03900529 141.23891532 -0.04156974 151.45903778 -0.03110075 C157.56363924 -0.02486359 163.66811189 -0.02403644 169.77270508 -0.0372467 C175.51179842 -0.04879844 181.25053836 -0.04079144 186.98959351 -0.01766968 C189.09629733 -0.01237903 191.20303088 -0.01390241 193.3097229 -0.02272034 C196.1847485 -0.03364508 199.05864046 -0.01994897 201.93359375 0 C203.18525204 -0.01338433 203.18525204 -0.01338433 204.46219635 -0.02703905 C209.76150671 0.04432364 212.75475294 1.01114825 216.96679688 4.50793457 C220.65384056 8.91647729 221.46202885 11.91830633 221.42089844 17.61486816 C221.42148254 18.29849426 221.42206665 18.98212036 221.42266846 19.6864624 C221.41990058 21.92696432 221.38887368 24.16610508 221.35742188 26.40637207 C221.34995479 27.96720656 221.34426406 29.52805046 221.340271 31.08889771 C221.32505128 35.18261935 221.28580195 39.27576679 221.24145508 43.3692627 C221.20042271 47.5521264 221.18224305 51.73508355 221.16210938 55.91809082 C221.11930335 64.11496792 221.05109742 72.31137967 220.96679688 80.50793457 C221.79053802 80.49982254 222.61427917 80.49171051 223.46298218 80.48335266 C224.54366974 80.4770433 225.6243573 80.47073395 226.73779297 80.4642334 C227.80903412 80.45612137 228.88027527 80.44800934 229.98397827 80.43965149 C245.40876167 80.79275769 259.7850918 90.88125411 270.09179688 101.57043457 C279.94192586 113.13884164 285.10075214 126.73274334 285.40429688 141.82043457 C285.42685547 142.585896 285.44941406 143.35135742 285.47265625 144.14001465 C285.44967138 149.39148368 284.38618546 152.32310487 280.96679688 156.50793457 C277.14749515 160.1362712 274.08400681 160.81793915 268.96679688 161.00793457 C263.84958694 160.81793915 260.7860986 160.1362712 256.96679688 156.50793457 C253.22823155 151.7536081 252.29000128 148.05944916 251.59179688 142.25793457 C250.20544212 133.07247096 247.51420351 126.07835507 240.09179688 120.07043457 C228.22295043 112.06744097 212.85133112 112.19248743 199.09179688 114.13293457 C190.69274204 115.95167727 183.95372659 120.30433118 179.14648438 127.43371582 C174.05112079 136.39278226 173.81657224 145.61062802 173.65039062 155.69152832 C173.61921898 157.27478661 173.61921898 157.27478661 173.5874176 158.89002991 C173.5223484 162.24176907 173.46323635 165.59358257 173.40429688 168.94543457 C173.36107107 171.22604103 173.31745551 173.50664014 173.2734375 175.78723145 C173.16671103 181.36072195 173.06486765 186.9342854 172.96679688 192.50793457 C174.24751068 192.49905212 175.52822449 192.49016968 176.8477478 192.48101807 C188.94125454 192.39978806 201.03470562 192.33989987 213.12842369 192.30068588 C219.3453347 192.27984755 225.56202474 192.25159805 231.77880859 192.20617676 C237.78292628 192.16258581 243.78683196 192.13876924 249.79109573 192.1284256 C252.07713786 192.12105805 254.36316892 192.10667107 256.64912033 192.08501434 C259.86122088 192.05580489 263.07245512 192.05198598 266.28466797 192.05383301 C267.22119202 192.0394519 268.15771606 192.0250708 269.12261963 192.01025391 C278.00298192 192.06519207 285.87227647 194.67496269 292.43554688 200.80480957 C298.09701787 207.1017518 301.20657845 214.05313653 301.23422241 222.57995605 C301.24701736 224.37153641 301.24701736 224.37153641 301.2600708 226.1993103 C301.25916443 227.49611725 301.25825806 228.79292419 301.25732422 230.12902832 C301.26331357 231.51917887 301.27012005 232.9093261 301.27767944 234.29946899 C301.29530113 238.06387722 301.30003308 241.82819444 301.30131102 245.59263992 C301.30273486 247.94624014 301.30700878 250.29981737 301.31230545 252.65341187 C301.33079004 260.86893172 301.33897766 269.08438679 301.33740234 277.29992676 C301.33619999 284.95151172 301.35732459 292.60281505 301.38888967 300.25432873 C301.41505216 306.83114795 301.42576972 313.40787513 301.42449152 319.98474598 C301.42398206 323.90963978 301.42965679 327.83428291 301.45084763 331.75912476 C301.47023087 335.44958859 301.47035438 339.13956254 301.45581436 342.83004379 C301.45273137 344.82557297 301.46940035 346.82110221 301.48669434 348.81655884 C301.40839877 359.96394846 301.40839877 359.96394846 296.96679688 364.50793457 C292.55825416 368.19497826 289.55642511 369.00316654 283.85986328 368.96203613 C283.17623718 368.96262024 282.49261108 368.96320435 281.78826904 368.96380615 C279.54776712 368.96103828 277.30862637 368.93001138 275.06835938 368.89855957 C273.50752489 368.89109248 271.94668098 368.88540176 270.38583374 368.88140869 C266.2921121 368.86618898 262.19896466 368.82693964 258.10546875 368.78259277 C253.92260504 368.74156041 249.7396479 368.72338074 245.55664062 368.70324707 C237.35976352 368.66044105 229.16335178 368.59223511 220.96679688 368.50793457 C220.97567932 369.37157623 220.98456177 370.2352179 220.99371338 371.12503052 C221.07396027 379.27585037 221.13481252 387.42653698 221.17404556 395.57766151 C221.19489406 399.76796995 221.22316104 403.95795116 221.26855469 408.14807129 C221.31211107 412.19405699 221.33595458 416.23972852 221.34630585 420.28593063 C221.35367974 421.82728392 221.36807945 423.36862059 221.3897171 424.90983963 C221.41888298 427.07393393 221.42274763 429.23674082 221.42089844 431.40100098 C221.42978088 432.63121979 221.43866333 433.8614386 221.44781494 435.12893677 C220.69738694 440.40045302 218.42902451 443.29401144 214.3847084 446.6515522 C210.01913252 449.02264286 206.81519789 449.06806949 201.93359375 449.01586914 C200.58468174 449.02522908 200.58468174 449.02522908 199.20851898 449.03477812 C196.20059349 449.0507101 193.19347812 449.03810291 190.18554688 449.0255127 C188.02693204 449.03093371 185.86832092 449.03805625 183.7097168 449.04675293 C177.85025973 449.0649915 171.99108432 449.05791639 166.13162231 449.04523659 C160.00050089 449.03511178 153.86940362 449.04450083 147.73828125 449.05078125 C137.44201323 449.05805915 127.14585997 449.04846614 116.84960938 449.02941895 C104.94458571 449.00765003 93.03983606 449.01470129 81.13481903 449.03672457 C70.91470748 449.05487443 60.69467843 449.05743888 50.47455597 449.04696989 C44.36995451 449.04073273 38.26548186 449.03990558 32.16088867 449.05311584 C26.42179533 449.06466758 20.68305539 449.05666058 14.94400024 449.03353882 C12.83729642 449.02824817 10.73056287 449.02977155 8.62387085 449.03858948 C5.74884525 449.04951422 2.87495329 449.03581811 0 449.01586914 C-1.25165829 449.02925347 -1.25165829 449.02925347 -2.5286026 449.04290819 C-7.81843745 448.9716731 -10.90666666 448.10867716 -15.03320312 444.50793457 C-18.67838142 439.92907612 -19.53364894 436.92085792 -19.53656769 431.10217285 C-19.54238145 430.37442343 -19.54819521 429.646674 -19.55418515 428.89687157 C-19.56878927 426.45699253 -19.55489868 424.01811886 -19.5411377 421.57824707 C-19.54574646 419.81192511 -19.55209921 418.04560697 -19.56004667 416.27929688 C-19.57676648 411.42445885 -19.56848156 406.56993477 -19.5561018 401.71509552 C-19.5470645 396.47984169 -19.56101448 391.24464246 -19.57202148 386.00939941 C-19.58982538 375.75312303 -19.58595837 365.49696361 -19.57437092 355.2406826 C-19.56534424 346.90657973 -19.56410929 338.57250968 -19.56846619 330.23840332 C-19.56907912 329.05309399 -19.56969205 327.86778465 -19.57032356 326.64655685 C-19.57160243 324.23876444 -19.57289929 321.83097203 -19.57421392 319.42317963 C-19.5856252 296.83538589 -19.57249741 274.24765705 -19.55101246 251.65987396 C-19.53314099 232.27065333 -19.53624495 212.88152848 -19.5546875 193.49230957 C-19.57608452 170.98637311 -19.58452652 148.48049355 -19.57223845 125.97454834 C-19.57096422 123.57552084 -19.56970674 121.17649334 -19.56846619 118.77746582 C-19.56754053 117.00682833 -19.56754053 117.00682833 -19.56659618 115.20042038 C-19.56313978 106.87452582 -19.56897789 98.5486673 -19.5783844 90.22277832 C-19.58959277 80.07887053 -19.58658878 69.93508658 -19.56526142 59.79119301 C-19.5547354 54.6137574 -19.55065566 49.43652841 -19.56385803 44.25909424 C-19.57575555 39.52179208 -19.56926301 34.78488855 -19.54794782 30.04762268 C-19.54347055 28.33169449 -19.54577319 26.61573279 -19.55545098 24.89982605 C-19.5675825 22.57063463 -19.5551743 20.24281564 -19.53656769 17.91369629 C-19.53591828 16.61906464 -19.53526887 15.32443298 -19.53459978 13.99057007 C-18.76988456 8.67895831 -16.32356765 5.63388378 -12.34777832 2.16468048 C-8.05691521 0.01995016 -4.72960238 -0.05057495 0 0 Z M12.96679688 32.50793457 C12.96679688 159.22793457 12.96679688 285.94793457 12.96679688 416.50793457 C47.61679688 416.50793457 82.26679688 416.50793457 117.96679688 416.50793457 C117.96679688 416.17793457 117.96679688 415.84793457 117.96679688 415.50793457 C116.99040253 415.3163678 116.01400818 415.12480103 115.00802612 414.9274292 C105.79476299 413.11797026 96.58441305 411.2942951 87.37670708 409.45676041 C82.64313784 408.51257911 77.90869293 407.57338749 73.171875 406.64562988 C68.59832885 405.74965924 64.02757474 404.84054255 59.45843887 403.92235565 C57.7171187 403.57481803 55.97485333 403.2319812 54.23165512 402.89398956 C51.78504882 402.41876849 49.34237551 401.92675182 46.89990234 401.43078613 C45.82419731 401.22794006 45.82419731 401.22794006 44.72676086 401.02099609 C39.10813122 399.85108412 34.74521274 397.96885303 31.32233661 393.23237985 C29.77962396 390.13174318 29.59001588 388.17178183 29.58648014 384.72448826 C29.5780402 383.56174588 29.56960026 382.3990035 29.56090456 381.2010265 C29.56691461 379.92788859 29.57292465 378.65475068 29.57911682 377.34303284 C29.57494368 375.97355555 29.56946626 374.60408172 29.56279701 373.23461431 C29.54832102 369.4721034 29.55259377 365.70981114 29.55996382 361.94728816 C29.56468788 357.88926096 29.55219242 353.83128159 29.54194641 349.77326965 C29.52473816 341.8236227 29.52392258 333.87405471 29.52915931 325.92439396 C29.53319843 319.46383888 29.53176053 313.00330718 29.52641106 306.54275322 C29.52566263 305.62374307 29.52491421 304.70473293 29.52414311 303.75787399 C29.52261166 301.89099204 29.52107331 300.0241101 29.51952814 298.15722816 C29.50579581 280.64454415 29.51124597 263.1319048 29.52271336 245.6192218 C29.53264683 229.59302957 29.5197044 213.56695277 29.49577916 197.54077835 C29.47140463 181.08985852 29.46177622 164.6389925 29.46843189 148.18805498 C29.47192773 138.95018084 29.46966798 129.7123955 29.45218086 120.47453499 C29.43747946 112.61064059 29.43679639 104.74689753 29.45425177 96.88300616 C29.46278117 92.87008026 29.46486431 88.85742493 29.44960022 84.84451294 C29.43580048 81.17113133 29.44045481 77.49825328 29.45983946 73.82490116 C29.46540311 71.86612189 29.45128865 69.90731728 29.43648535 67.94858605 C29.52612243 57.30506722 29.52612243 57.30506722 33.96679688 52.50793457 C37.85042236 49.48193268 42.04275871 48.61231492 46.78637695 47.6986084 C47.55763916 47.54211319 48.32890137 47.38561798 49.12353516 47.22438049 C51.659405 46.71216508 54.19773777 46.2135067 56.73632812 45.71496582 C58.5005489 45.36136394 60.26460024 45.00691567 62.02848816 44.6516571 C66.66117427 43.72096288 71.29606791 42.80176003 75.93151855 41.88494873 C80.66537078 40.94655876 85.39704021 39.99729519 90.12890625 39.0489502 C99.40610157 37.19130926 108.6856659 35.34580356 117.96679688 33.50793457 C117.96679688 33.17793457 117.96679688 32.84793457 117.96679688 32.50793457 C83.31679687 32.50793457 48.66679687 32.50793457 12.96679688 32.50793457 Z M181.98753357 53.45030212 C180.93446014 53.65921082 179.88138672 53.86811951 178.79640198 54.08335876 C177.63632126 54.31555618 176.47624054 54.5477536 175.28100586 54.7869873 C173.45418274 55.15033676 173.45418274 55.15033676 171.5904541 55.52102661 C168.24526416 56.18690957 164.90043699 56.85455867 161.55580401 57.52323031 C158.76739581 58.08053268 155.97877858 58.63678529 153.19017082 59.19308811 C146.61476919 60.50490959 140.03980884 61.81892694 133.46508789 63.13415527 C126.67204223 64.49300498 119.87814936 65.84755774 113.08384651 67.20010608 C107.25823765 68.36000748 101.43322192 69.52285448 95.6086641 70.6880222 C92.12642503 71.38457226 88.64395463 72.07991149 85.16088676 72.77230644 C81.28079477 73.54375365 77.40194263 74.3213156 73.52319336 75.0994873 C72.36108841 75.32966049 71.19898346 75.55983368 70.00166321 75.79698181 C68.95140961 76.00871033 67.90115601 76.22043884 66.81907654 76.43858337 C65.90080298 76.62202018 64.98252943 76.80545698 64.03642941 76.99445248 C61.98933369 77.31338889 61.98933369 77.31338889 60.96679688 78.50793457 C60.86983782 80.06656709 60.84308025 81.62960935 60.84374905 83.19125462 C60.841758 84.21039717 60.83976695 85.22953973 60.83771557 86.27956539 C60.84062841 87.41280945 60.84354125 88.54605352 60.84654236 89.71363831 C60.84568793 90.90689002 60.84483351 92.10014173 60.84395319 93.32955259 C60.84258499 96.65657449 60.84573251 99.98353829 60.85073125 103.31055319 C60.85503241 106.89270952 60.85358957 110.47486391 60.85282898 114.05702209 C60.85230353 120.26831046 60.8554525 126.47958836 60.86106682 132.6908741 C60.869179 141.67145295 60.87179675 150.65202671 60.87305481 159.63260882 C60.87524577 174.20148656 60.88190706 188.7703587 60.89135742 203.3392334 C60.90053039 217.49515759 60.90761179 231.65108027 60.91186523 245.80700684 C60.91212796 246.67894682 60.91239068 247.55088681 60.91266137 248.44924922 C60.91396636 252.82332738 60.91523008 257.19740555 60.91647327 261.57148373 C60.92684726 297.88363796 60.94446678 334.19578583 60.96679688 370.50793457 C64.7004206 371.80515087 68.35537921 372.88550938 72.23052979 373.65957642 C73.75311401 373.96660995 73.75311401 373.96660995 75.30645752 374.27984619 C76.4038324 374.49707336 77.50120728 374.71430054 78.63183594 374.93811035 C79.79992798 375.1724881 80.96802002 375.40686584 82.17150879 375.64834595 C85.36071051 376.28741084 88.55057147 376.92304706 91.74078846 377.55702066 C95.0822364 378.22178653 98.42286866 378.89062769 101.76361084 379.55892944 C107.36825321 380.67948396 112.97348202 381.79706444 118.57910156 382.91271973 C125.06345838 384.20328866 131.54699756 385.49790017 138.03008866 386.79481137 C144.26929635 388.04289679 150.50894025 389.2887863 156.7488327 390.53344345 C159.40441526 391.06314651 162.05986573 391.59350472 164.71521759 392.12436295 C168.41620713 392.86369769 172.11769112 393.60050192 175.81933594 394.33654785 C176.92480774 394.55782349 178.03027954 394.77909912 179.16925049 395.00708008 C180.17302734 395.20612946 181.1768042 395.40517883 182.21099854 395.61026001 C183.0862833 395.78464663 183.96156807 395.95903324 184.86337662 396.1387043 C186.9391801 396.56556607 186.9391801 396.56556607 188.96679688 396.50793457 C188.96679688 387.26793457 188.96679688 378.02793457 188.96679688 368.50793457 C185.13828125 368.48215332 181.30976563 368.45637207 177.36523438 368.42980957 C173.65178109 368.39138249 169.93846634 368.34622411 166.22509766 368.30041504 C163.64704008 368.27221298 161.06889616 368.2509947 158.49072266 368.23693848 C154.78177713 368.21549949 151.07386894 368.16884061 147.36523438 368.11730957 C146.21501801 368.11608093 145.06480164 368.11485229 143.87973022 368.11358643 C137.81304728 368.00288941 133.59491246 367.87097087 128.96679688 363.50793457 C126.27461286 359.7483992 125.58995837 357.17577105 125.57911682 352.57635498 C125.56921219 351.38767822 125.55930756 350.19900146 125.54910278 348.9743042 C125.55360443 347.67861511 125.55810608 346.38292603 125.56274414 345.04797363 C125.55703868 343.6628362 125.55007373 342.27770347 125.54194641 340.89257812 C125.5240139 337.13612348 125.52518413 333.37990244 125.5308888 329.62341785 C125.53398218 326.48254335 125.52788616 323.34171361 125.52185005 320.20084548 C125.50780458 312.78591796 125.50936475 305.37110562 125.52075195 297.95617676 C125.53221856 290.32113032 125.51818231 282.68643575 125.49135548 275.05143571 C125.46915395 268.48561839 125.46257153 261.91991115 125.46843189 255.35405898 C125.47179384 251.4374536 125.46943812 247.52107344 125.45218086 243.60449982 C125.43664378 239.91730119 125.44074128 236.23062044 125.45948601 232.54344177 C125.46489361 230.55684591 125.45070713 228.57022643 125.43579102 226.5836792 C125.51130024 217.37008411 127.17322352 210.74990126 132.96679688 203.50793457 C132.96679688 202.84793457 132.96679688 202.18793457 132.96679688 201.50793457 C133.83304688 201.10574707 133.83304688 201.10574707 134.71679688 200.69543457 C137.12010162 199.42702373 138.98897836 198.38642453 140.96679688 196.50793457 C141.55859145 193.76869805 141.55859145 193.76869805 141.44921875 190.60632324 C141.45943054 188.7824836 141.45943054 188.7824836 141.46984863 186.92179871 C141.45286926 184.94383049 141.45286926 184.94383049 141.43554688 182.92590332 C141.44037811 181.55124432 141.44753648 180.17659171 141.45690918 178.80195618 C141.48652393 173.70082202 141.47349527 168.59995515 141.46173096 163.4987793 C141.45344012 159.20124268 141.46184961 154.90431817 141.49085999 150.60686684 C141.49783308 148.6120637 141.48116256 146.61722158 141.46374512 144.6224823 C141.56309456 126.37253256 148.14113352 110.52646505 160.96679688 97.50793457 C169.59366729 90.23295089 178.4775683 86.33111134 188.96679688 82.50793457 C188.96679688 72.60793457 188.96679688 62.70793457 188.96679688 52.50793457 C186.53551711 52.50793457 184.37531577 52.97448804 181.98753357 53.45030212 Z M156.96679688 224.50793457 C156.96679688 261.46793457 156.96679688 298.42793457 156.96679688 336.50793457 C193.92679688 336.50793457 230.88679688 336.50793457 268.96679688 336.50793457 C268.96679688 299.54793457 268.96679688 262.58793457 268.96679688 224.50793457 C232.00679687 224.50793457 195.04679687 224.50793457 156.96679688 224.50793457 Z " fill="#ffffff" stroke="#000000" stroke-width="1" transform="translate(115.033203125,31.4920654296875)"/>
<path d="M0 0 C4.96592669 2.30560882 7.41978039 5.22082111 10 10 C10.57098662 13.33824707 10.56124181 16.61943061 10.53125 20 C10.5350769 20.95390625 10.53890381 21.9078125 10.54284668 22.890625 C10.54556036 24.90105245 10.53823737 26.91151553 10.52148438 28.921875 C10.50006709 31.99038787 10.52130466 35.05655952 10.546875 38.125 C10.54423163 40.08333848 10.53910645 42.0416755 10.53125 44 C10.53934692 44.91265625 10.54744385 45.8253125 10.55578613 46.765625 C10.47405684 52.34723968 9.72311686 55.57473138 6 60 C2.18069828 63.62833663 -0.88279006 64.31000458 -6 64.5 C-11.11720994 64.31000458 -14.18069828 63.62833663 -18 60 C-22.42898965 54.73573631 -22.58960225 50.57725694 -22.53125 44 C-22.5350769 43.04609375 -22.53890381 42.0921875 -22.54284668 41.109375 C-22.54556036 39.09894755 -22.53823737 37.08848447 -22.52148438 35.078125 C-22.50006709 32.00961213 -22.52130466 28.94344048 -22.546875 25.875 C-22.54423163 23.91666152 -22.53910645 21.9583245 -22.53125 20 C-22.53934692 19.08734375 -22.54744385 18.1746875 -22.55578613 17.234375 C-22.47405684 11.65276032 -21.72311686 8.42526862 -18 4 C-12.72867143 -1.00776214 -6.89190982 -0.92775709 0 0 Z " fill="#ffffff" stroke="#000000" stroke-width="1" transform="translate(214,224)"/>
<path d="M0 0 C4.47870656 2.15937638 7.18198188 4.92952939 10 9 C11.66026461 13.98079383 11.59903425 18.30273629 9.875 23.1875 C7.28535548 27.07196678 4.22685959 29.88657021 0 32 C-5.60345293 32.59520744 -11.21349855 33.12154174 -16.0625 29.875 C-19.71295573 26.67862535 -21.66484857 23.53039333 -22.3125 18.640625 C-22.60835265 12.53866415 -21.70196057 8.87100075 -18 4 C-12.81900198 -1.05147307 -6.84366817 -0.93066367 0 0 Z " fill="#ffffff" stroke="#000000" stroke-width="1" transform="translate(334,296)"/>
</svg>
