<?xml version="1.0" encoding="UTF-8"?>
<svg version="1.1" xmlns="http://www.w3.org/2000/svg" width="3509" height="2481">
<path d="M0 0 C0 265.32 0 530.64 0 804 C-367 804 -367 804 -490.9375 703.125 C-569 608.43306889 -569 608.43306889 -569 600 C-544.27940542 598.867579 -519.56279933 598.02710467 -494.82130432 597.51301575 C-483.32568154 597.26769109 -471.84650435 596.93374738 -460.36132812 596.37890625 C-376.4248251 592.40211951 -376.4248251 592.40211951 -352.69059753 613.79756165 C-343.52218087 622.45693247 -335.73076326 632.39938551 -328.71166992 642.84667969 C-325.36705461 647.74664966 -321.59408739 651.29959004 -317 655 C-315.48590553 656.43955313 -313.98658502 657.89503806 -312.51171875 659.37475586 C-311.73151367 660.15503647 -310.95130859 660.93531708 -310.14746094 661.73924255 C-309.33567383 662.55619095 -308.52388672 663.37313934 -307.6875 664.21484375 C-306.40601074 665.49845543 -306.40601074 665.49845543 -305.09863281 666.80799866 C-302.39671138 669.51547381 -299.69830641 672.22642254 -297 674.9375 C-295.15778423 676.78473675 -293.31533857 678.63174427 -291.47265625 680.47851562 C-286.97910939 684.98303003 -282.4884368 689.49039405 -278 694 C-235.39050106 673.76735255 -181.7805996 625.98765779 -164 582 C-153.69802533 551.58245721 -156.93874254 516.56968886 -158.734375 485.078125 C-158.85372127 482.87507206 -158.97256258 480.6719917 -159.09090233 478.46888447 C-160.33135959 455.74178019 -162.01435895 433.05712814 -163.9381032 410.37850213 C-168.11628954 361.11264044 -170.09186299 311.84916313 -170.109375 262.40625 C-170.11135021 261.27262665 -170.11332543 260.1390033 -170.1153605 258.97102773 C-170.20649846 187.82143153 -162.12163674 132.43103986 -110.93138504 80.31052017 C-101.78656413 71.20232487 -92.00778021 62.88762008 -82 54.75 C-80.54369328 53.55887698 -80.54369328 53.55887698 -79.05796623 52.34369087 C-14.81142477 0 -14.81142477 0 0 0 Z " fill="#0E0011" transform="translate(1713,846)"/>
<path d="M0 0 C0 125.73 0 251.46 0 381 C72.27 381 144.54 381 219 381 C202.71707541 413.56584918 175.47916517 432.53983569 147 455 C98.49 455 49.98 455 0 455 C0 570.17 0 685.34 0 804 C-53.79 804 -107.58 804 -163 804 C-163 688.83 -163 573.66 -163 455 C-187.09 455 -211.18 455 -236 455 C-236 430.58 -236 406.16 -236 381 C-211.91 381 -187.82 381 -163 381 C-163.84836426 375.2142041 -164.69672852 369.4284082 -165.57080078 363.46728516 C-169.31165352 336.2804946 -171.60690475 309.0213413 -173.125 281.625 C-173.23043633 279.77644071 -173.23043633 279.77644071 -173.33800268 277.89053679 C-176.8125655 215.25631879 -172.57414534 162.82483938 -129.62069893 114.33497429 C-114.64554077 97.71110363 -98.66925402 82.29188873 -82.0625 67.3125 C-80.61233348 66.00024744 -80.61233348 66.00024744 -79.13287067 64.66148472 C-55.94675333 43.71390091 -32.08987577 23.66279962 -7.270401 4.6764679 C-6.64297703 4.19554977 -6.01555306 3.71463164 -5.36911625 3.21914023 C-1.12253078 0 -1.12253078 0 0 0 Z " fill="#0E0011" transform="translate(1972,846)"/>
<path d="M0 0 C0 265.32 0 530.64 0 804 C-53.79 804 -107.58 804 -163 804 C-163.32265079 734.26709746 -163.32265079 734.26709746 -163.390625 705.16601562 C-163.40628803 698.5049626 -163.4224519 691.84391108 -163.43945312 685.18286133 C-163.44156312 684.34800471 -163.44367311 683.51314809 -163.44584703 682.65299278 C-163.48064375 669.17397049 -163.54371514 655.69522116 -163.61722237 642.21636074 C-163.69202914 628.38386217 -163.73646901 614.55150651 -163.75270796 600.71881396 C-163.76368633 592.1828022 -163.79836108 583.64756163 -163.86333174 575.11178727 C-163.90561321 569.25881843 -163.91840252 563.40624837 -163.90801102 557.55313789 C-163.90288489 554.17532222 -163.91511608 550.79994048 -163.9536438 547.42217827 C-163.99339097 543.75827341 -163.98390371 540.09768039 -163.96203613 536.43370056 C-163.98533886 535.36851588 -164.0086416 534.30333119 -164.03265047 533.20586818 C-163.91876388 526.15744982 -163.91876388 526.15744982 -161.39001083 522.97175127 C-159.33838274 521.17889798 -157.20722749 519.59544884 -155 518 C-153.86296573 516.95103533 -152.74745309 515.87814251 -151.65739441 514.78044224 C-151.11547329 514.24051217 -150.57355217 513.7005821 -150.0152092 513.14429051 C-149.45097874 512.5771472 -148.88674828 512.0100039 -148.30541992 511.42567444 C-147.68196812 510.80307706 -147.05851631 510.18047968 -146.41617203 509.53901571 C-144.35189435 507.47636993 -142.29118374 505.41019879 -140.23046875 503.34399414 C-138.74183788 501.85508087 -137.25298614 500.36638841 -135.76393127 498.87789917 C-131.73956432 494.85381815 -127.71827976 490.82666976 -123.69755554 486.79894948 C-119.48864346 482.58376997 -115.27688377 478.37143769 -111.06542969 474.15879822 C-103.09863683 466.18890203 -95.13439571 458.21646099 -87.17107582 450.24309486 C-76.40460465 439.46333723 -65.63418062 428.68753056 -54.86398125 417.91149807 C-37.90609484 400.94421955 -20.95348244 383.97168155 -4 367 C-56.47 366.67 -108.94 366.34 -163 366 C-169.83239474 319.29791088 -169.83239474 319.29791088 -171.22680664 301.66113281 C-171.31287426 300.5762805 -171.39894188 299.49142819 -171.48761761 298.37370157 C-172.11268035 290.29530905 -172.64190009 282.21302285 -173.125 274.125 C-173.19529088 272.98185522 -173.26558177 271.83871044 -173.33800268 270.66092491 C-176.83358128 212.2035365 -171.96486958 163.65814523 -132.25486755 118.26179123 C-116.47178852 100.58275774 -99.59280912 84.18104171 -82.0625 68.25 C-81.09572232 67.36880147 -80.12894464 66.48760294 -79.13287067 65.57970142 C-55.89914733 44.43371035 -32.03101381 24.11510377 -7.270401 4.77740479 C-6.64297703 4.2862525 -6.01555306 3.79510021 -5.36911625 3.28906453 C-1.12178958 0 -1.12178958 0 0 0 Z " fill="#0E0011" transform="translate(2232,846)"/>
<path d="M0 0 C0.33 0 0.66 0 1 0 C1 144.21 1 288.42 1 437 C-52.46 437 -105.92 437 -161 437 C-155 430 -155 430 -152.19940567 427.91178513 C-148.51481714 425.16170833 -145.48610589 422.54760045 -144.58887768 417.84537601 C-144.25122615 412.20472744 -144.83359784 406.61312424 -145.42740071 401.00591695 C-145.78261673 397.63507121 -146.07102887 394.26399357 -146.3430624 390.88546467 C-146.74144792 385.95899935 -147.16041776 381.03490437 -147.59126854 376.11117744 C-163.48439576 189.29988006 -163.48439576 189.29988006 -120.34878159 128.79805374 C-97.00005612 101.3540818 -68.22474398 77.42018275 -38.31636047 57.38169861 C-23.72136193 47.52661404 -14.03880964 39.27988694 -8.85214043 21.70282936 C-7.37409389 17.01474338 -5.34391846 12.56083645 -3.375 8.0625 C-2.71308177 6.49217345 -2.05392328 4.92067869 -1.3984375 3.34765625 C-0.93695312 2.24292969 -0.47546875 1.13820313 0 0 Z " fill="#0E0011" transform="translate(2231,1213)"/>
<path d="M0 0 C0.97270954 -0.09493571 1.94541907 -0.18987142 2.94760466 -0.28768396 C44.06209416 -4.07703403 86.21470389 6.69466076 126.0859375 13.0546875 C126.0859375 77.7346875 126.0859375 142.4146875 126.0859375 209.0546875 C118.2109375 202.3046875 118.2109375 202.3046875 115.13111877 199.22012329 C114.43153549 198.52191467 113.73195221 197.82370605 113.01116943 197.1043396 C112.26957581 196.3591507 111.52798218 195.61396179 110.76391602 194.84619141 C109.56269356 193.64518799 109.56269356 193.64518799 108.33720398 192.41992188 C105.71070446 189.79272989 103.08775734 187.16202167 100.46484375 184.53125 C98.63660689 182.7011466 96.80814803 180.87126495 94.97947693 179.04159546 C90.6712759 174.72997622 86.36530737 170.41613925 82.06043142 166.10120046 C77.15546209 161.18501704 72.24762079 156.27170494 67.33954728 151.35862088 C57.25183295 141.26048063 47.16769417 131.15877558 37.0859375 121.0546875 C31.4248705 125.47202122 27.90520835 129.93115883 24.13989258 135.99755859 C15.86808892 148.78592505 6.69915182 160.78775916 -3.1015625 172.4296875 C-3.546538 172.96053924 -3.9915135 173.49139097 -4.44997311 174.03832912 C-27.96209244 201.93685866 -52.83573402 218.53927122 -89.74348927 221.90774345 C-114.30307653 223.87115133 -138.93945012 223.52397281 -163.5390625 222.6796875 C-164.67201736 222.641753 -165.80497222 222.60381849 -166.97225904 222.56473446 C-196.6815985 221.55084717 -226.30689485 219.70387882 -255.9140625 217.0546875 C-255.06835284 216.07130118 -254.22264318 215.08791487 -253.35130596 214.07472897 C-250.48605502 210.73205379 -247.64870713 207.36688881 -244.8179127 203.99502647 C-218.66667513 172.8708528 -191.66419993 142.56678224 -163.88475126 112.88911766 C-162.23027559 111.12115529 -160.57747147 109.35164084 -158.92472887 107.58205843 C-63.83112454 5.87355238 -63.83112454 5.87355238 0 0 Z " fill="#0E0011" transform="translate(1399.9140625,1197.9453125)"/>
<path d="M0 0 C0.33 0.66 0.66 1.32 1 2 C-0.01955171 4.83498574 -1.1097738 7.56730955 -2.296875 10.33203125 C-2.82102997 11.57517342 -2.82102997 11.57517342 -3.35577393 12.84342957 C-4.09872492 14.60104236 -4.84548259 16.35705009 -5.59570312 18.11157227 C-6.7393235 20.78751816 -7.87063728 23.46840096 -9 26.15039062 C-9.72323162 27.85707897 -10.4471676 29.56346904 -11.171875 31.26953125 C-11.50950867 32.06865433 -11.84714233 32.8677774 -12.19500732 33.69111633 C-12.68000702 34.82204964 -12.68000702 34.82204964 -13.17480469 35.97583008 C-13.59569366 36.96272575 -13.59569366 36.96272575 -14.02508545 37.96955872 C-16.37014371 42.85357968 -18.63557952 45.79874373 -23.10540581 48.93279839 C-24.68903284 50.06443183 -24.68903284 50.06443183 -26.30465233 51.21892655 C-26.87335467 51.62126799 -27.442057 52.02360943 -28.02799274 52.43814303 C-73.88199135 85.04820631 -137.5334438 131.50207977 -148.412029 190.14619586 C-152.58583047 215.33091027 -152.09277556 240.93733587 -150.96680272 266.35206902 C-150.8200059 269.70230982 -150.68709282 273.05285919 -150.55734158 276.40380001 C-149.09319576 313.41483158 -145.89679825 350.25775622 -142.47528839 387.13047028 C-139.38800705 420.44138578 -136.75562495 453.7162118 -135.51062715 487.15270364 C-135.38308338 490.50070187 -135.24180231 493.84792767 -135.09926319 497.19531727 C-132.75295918 555.06277997 -139.84297103 596.88269705 -179.72555674 640.60163785 C-208.15582626 671.20974694 -241.04284614 697.79072161 -275 722 C-276.12274285 721.0442606 -277.24455228 720.0874246 -278.3659668 719.13012695 C-279.30317818 718.33104668 -279.30317818 718.33104668 -280.25932312 717.51582336 C-282.20398857 715.82236184 -284.02321477 714.04383104 -285.8125 712.1875 C-288.15387871 709.7530483 -288.15387871 709.7530483 -291 708 C-291 707.34 -291 706.68 -291 706 C-291.66 706 -292.32 706 -293 706 C-293 705.34 -293 704.68 -293 704 C-293.66 704 -294.32 704 -295 704 C-295 703.34 -295 702.68 -295 702 C-295.66 702 -296.32 702 -297 702 C-297 701.34 -297 700.68 -297 700 C-297.66 700 -298.32 700 -299 700 C-299 699.34 -299 698.68 -299 698 C-299.66 698 -300.32 698 -301 698 C-301 697.34 -301 696.68 -301 696 C-301.66 696 -302.32 696 -303 696 C-303 695.34 -303 694.68 -303 694 C-303.66 694 -304.32 694 -305 694 C-305 693.34 -305 692.68 -305 692 C-305.66 692 -306.32 692 -307 692 C-307 691.34 -307 690.68 -307 690 C-307.66 690 -308.32 690 -309 690 C-309 689.34 -309 688.68 -309 688 C-309.66 688 -310.32 688 -311 688 C-311 687.34 -311 686.68 -311 686 C-311.66 686 -312.32 686 -313 686 C-313 685.34 -313 684.68 -313 684 C-313.66 684 -314.32 684 -315 684 C-315 683.34 -315 682.68 -315 682 C-315.66 682 -316.32 682 -317 682 C-317 681.34 -317 680.68 -317 680 C-317.66 680 -318.32 680 -319 680 C-319 679.34 -319 678.68 -319 678 C-319.66 678 -320.32 678 -321 678 C-321 677.34 -321 676.68 -321 676 C-321.66 676 -322.32 676 -323 676 C-323 675.34 -323 674.68 -323 674 C-323.66 674 -324.32 674 -325 674 C-325 673.34 -325 672.68 -325 672 C-325.66 672 -326.32 672 -327 672 C-327 671.34 -327 670.68 -327 670 C-327.66 670 -328.32 670 -329 670 C-329 669.34 -329 668.68 -329 668 C-329.66 668 -330.32 668 -331 668 C-331 667.34 -331 666.68 -331 666 C-331.66 666 -332.32 666 -333 666 C-333 665.34 -333 664.68 -333 664 C-333.66 664 -334.32 664 -335 664 C-335 663.34 -335 662.68 -335 662 C-335.66 662 -336.32 662 -337 662 C-337 661.34 -337 660.68 -337 660 C-337.60315411 659.74579001 -338.20630821 659.49158003 -338.82773972 659.22966671 C-341.27504378 657.84430403 -342.20985071 656.65116247 -343.75616455 654.32533264 C-354.34474874 639.07733305 -367.75185738 621.59601651 -386.97045898 617.93231201 C-396.0150549 616.46361576 -405.15125784 616.24264055 -414.296875 616.24609375 C-415.48346049 616.24617896 -415.48346049 616.24617896 -416.69401741 616.24626589 C-426.53974795 616.27725328 -436.36395921 616.63026903 -446.19738626 617.10031378 C-457.13830119 617.61623532 -468.08661822 617.8165711 -479.03664017 618.04132938 C-480.6636927 618.07529781 -482.29074125 618.10945775 -483.91778564 618.14381409 C-484.71242257 618.16037633 -485.5070595 618.17693856 -486.32577634 618.19400269 C-491.00054668 618.29762677 -495.67042956 618.44995735 -500.34206724 618.64970195 C-503.23742405 618.77192722 -506.13331461 618.8752352 -509.02946091 618.97679138 C-510.99132373 619.05349899 -512.95204247 619.15793083 -514.91256714 619.26344299 C-523.03223305 619.53445436 -528.07377424 618.13454088 -535 614 C-537.53050209 612.92355583 -540.0909529 612.04206679 -542.6875 611.125 C-550.6976364 608.23137688 -558.34369468 604.71814827 -566 601 C-566 600.67 -566 600.34 -566 600 C-541.54023494 598.86744116 -517.08450281 598.027044 -492.60360718 597.51301575 C-481.22895377 597.26771618 -469.87092711 596.93383392 -458.50683594 596.37890625 C-375.4673717 592.40211791 -375.4673717 592.40211791 -351.75747681 613.79756165 C-342.58472978 622.46610552 -334.77616357 632.40744529 -327.72753906 642.84667969 C-324.37219489 647.7384897 -320.59271367 651.29813857 -316 655 C-314.48590553 656.43955313 -312.98658502 657.89503806 -311.51171875 659.37475586 C-310.73151367 660.15503647 -309.95130859 660.93531708 -309.14746094 661.73924255 C-308.33567383 662.55619095 -307.52388672 663.37313934 -306.6875 664.21484375 C-305.40601074 665.49845543 -305.40601074 665.49845543 -304.09863281 666.80799866 C-301.39671138 669.51547381 -298.69830641 672.22642254 -296 674.9375 C-294.15778423 676.78473675 -292.31533857 678.63174427 -290.47265625 680.47851562 C-285.97910939 684.98303003 -281.4884368 689.49039405 -277 694 C-234.39050106 673.76735255 -180.7805996 625.98765779 -163 582 C-152.6980138 551.58242317 -155.93881502 516.56972116 -157.734375 485.078125 C-157.85371289 482.87507211 -157.9725449 480.67199175 -158.09087443 478.46888447 C-159.33121575 455.74177932 -161.01407104 433.05712318 -162.93781728 410.37850213 C-167.11606146 361.11261743 -169.09450127 311.84922507 -169.11328125 262.40625 C-169.11528775 261.27262665 -169.11729425 260.1390033 -169.11936155 258.97102773 C-169.21250711 187.79705752 -161.10594469 132.43105545 -109.88574028 80.31052017 C-100.73533268 71.20197788 -90.95165788 62.88648989 -80.9375 54.75 C-79.47974687 53.55887698 -79.47974687 53.55887698 -77.99254417 52.34369087 C-53.49893318 32.4099431 -27.82230162 14.93733312 0 0 Z " fill="#898989" transform="translate(1712,846)"/>
<path d="M0 0 C3.09960434 9.29881302 -4.13974762 23.5183768 -8.140625 31.83398438 C-15.76463303 46.35195398 -28.34515433 55.03943411 -41.21368599 64.60341072 C-112.7567237 117.41191314 -112.7567237 117.41191314 -148.52517676 195.568928 C-152.9743097 227.98978863 -152.63533916 260.80768075 -151.4375 293.4375 C-151.39029438 294.75328726 -151.34308876 296.06907452 -151.29445267 297.42473412 C-150.03248511 331.74091016 -147.45755128 365.83742743 -144 400 C-168.09 400 -192.18 400 -217 400 C-216.67 406.105 -216.34 412.21 -216 418.5 C-215.44316788 439.67794885 -215.44316788 439.67794885 -222.625 447.46484375 C-231.21955446 455 -231.21955446 455 -235 455 C-235 430.58 -235 406.16 -235 381 C-210.91 381 -186.82 381 -162 381 C-162.84836426 375.2142041 -163.69672852 369.4284082 -164.57080078 363.46728516 C-168.31169753 336.28045074 -170.60599845 309.02131528 -172.125 281.625 C-172.19535713 280.39262714 -172.26571426 279.16025428 -172.33820343 277.89053679 C-175.8179521 215.2372436 -171.57653284 162.82183115 -128.58773947 114.33497429 C-113.60119537 97.71221364 -97.61775041 82.29009822 -81 67.3125 C-80.03225804 66.43766496 -79.06451609 65.56282991 -78.06744862 64.66148472 C-52.936565 41.98195527 -26.97273785 20.45096492 0 0 Z " fill="#888888" transform="translate(1971,846)"/>
<path d="M0 0 C0.99 0.33 1.98 0.66 3 1 C2.50185791 2.16233154 2.50185791 2.16233154 1.99365234 3.34814453 C1.2968335 4.97405518 1.2968335 4.97405518 0.5859375 6.6328125 C-0.60571289 9.41333008 -0.60571289 9.41333008 -1.79736328 12.19384766 C-2.0704834 12.83112793 -2.34360352 13.4684082 -2.625 14.125 C-7.21728516 24.84033203 -7.21728516 24.84033203 -8.0512228 26.71046829 C-8.79064466 28.49479637 -9.44178982 30.31578676 -10.05657291 32.14680099 C-13.3559989 41.20072592 -17.12183351 45.75553857 -25.45118487 51.02465308 C-28.64394787 53.05468422 -31.74567389 55.21922935 -34.86328125 57.36213684 C-35.86324181 58.04352703 -35.86324181 58.04352703 -36.8834036 58.73868269 C-51.35167493 68.64916601 -64.94066445 79.79688242 -78.3125 91.125 C-79.43103654 92.07098785 -79.43103654 92.07098785 -80.57216978 93.03608656 C-118.41685913 125.2384782 -143.50654067 159.0558287 -147.75043562 209.59702085 C-150.98480067 251.04940492 -149.01564914 292.71779752 -146.66936615 334.15902404 C-146.55067423 336.25701187 -146.43352747 338.35508221 -146.31647944 340.45316231 C-145.57241476 353.70503373 -144.75710193 366.93982894 -143.4878996 380.15395212 C-143.03614041 384.95447157 -142.64982442 389.75912592 -142.2717489 394.56594253 C-142.07944752 396.77101038 -141.85444178 398.97353122 -141.59295809 401.17146897 C-139.6737629 417.3219591 -139.6737629 417.3219591 -143.66470313 423.63208175 C-148.11397676 429.08580801 -153.26697751 433.90827525 -159 438 C-159.33 438 -159.66 438 -160 438 C-160.18310236 402.5762989 -160.3240727 367.15268077 -160.40852264 331.7286039 C-160.41852831 327.54668893 -160.42888289 323.3647749 -160.43945312 319.18286133 C-160.44155161 318.35031598 -160.44365009 317.51777063 -160.44581217 316.65999664 C-160.48062486 303.17863976 -160.5437024 289.69755574 -160.61722237 276.21636074 C-160.69202914 262.38386217 -160.73646901 248.55150651 -160.75270796 234.71881396 C-160.76368633 226.1828022 -160.79836108 217.64756163 -160.86333174 209.11178727 C-160.90561321 203.25881843 -160.91840252 197.40624837 -160.90801102 191.55313789 C-160.90288489 188.17532222 -160.91511608 184.79994048 -160.9536438 181.42217827 C-160.99339097 177.75827341 -160.98390371 174.09768039 -160.96203613 170.43370056 C-160.99699023 168.83592353 -160.99699023 168.83592353 -161.03265047 167.20586818 C-160.91876714 160.15765196 -160.91876714 160.15765196 -158.3913455 156.97308594 C-156.33927157 155.17997536 -154.20733403 153.59617952 -152 152 C-150.85772173 150.94586408 -149.73704388 149.86772682 -148.64177704 148.76482487 C-148.09637252 148.2214114 -147.55096801 147.67799793 -146.98903608 147.11811739 C-146.42091467 146.54708314 -145.85279326 145.97604889 -145.26745605 145.38771057 C-144.6399207 144.76102964 -144.01238534 144.13434871 -143.36583376 143.48867744 C-141.28773651 141.41221227 -139.21320652 139.33222125 -137.13867188 137.25219727 C-135.64018891 135.75343191 -134.14148508 134.25488735 -132.64257812 132.75654602 C-128.59135253 128.70560638 -124.54320942 124.65159919 -120.49562645 120.59702039 C-116.25868702 116.35381379 -112.01890023 112.11345418 -107.77941895 107.87278748 C-99.75950219 99.84976731 -91.74213716 91.82420225 -83.72569323 83.79771227 C-74.59586023 74.65668737 -65.46317483 65.51851454 -56.33025265 56.38057625 C-37.55033359 37.59021522 -18.7739867 18.79628809 0 0 Z " fill="#898A8A" transform="translate(2229,1212)"/>
<path d="M0 0 C0.98596775 0.08328631 1.97193549 0.16657262 2.98778105 0.25238276 C28.10200776 2.4138624 52.70547305 6.3122019 77.1875 12.3125 C76.80731563 12.73987866 76.42713125 13.16725733 76.03542614 13.60758686 C73.45189737 16.55869854 71.0507007 19.43280928 68.99568176 22.77861023 C66.35606583 26.64952985 63.63920875 29.61134173 59.1875 31.3125 C51.57388974 31.79004363 43.97685228 29.70452797 36.56820858 28.12580711 C-5.36725675 19.26951472 -62.32332526 12.15498502 -100.55065918 35.68750763 C-141.4339304 62.58627853 -174.57305954 102.32546484 -206.97973633 138.64379883 C-208.26822058 140.08441687 -208.26822058 140.08441687 -209.58273482 141.5541383 C-217.8192116 150.76926921 -226.00961383 160.00344797 -233.89080918 169.52560002 C-253.1215692 192.70414943 -269.65193923 206.03030415 -298.8125 214.3125 C-300.81619978 214.96796292 -302.81763956 215.63060831 -304.8125 216.3125 C-303.96679034 215.32911368 -303.12108068 214.34572737 -302.24974346 213.33254147 C-299.38449252 209.98986629 -296.54714463 206.62470131 -293.7163502 203.25283897 C-267.56511263 172.1286653 -240.56263743 141.82459474 -212.78318876 112.14693016 C-211.12871309 110.37896779 -209.47590897 108.60945334 -207.82316637 106.83987093 C-146.94878801 41.73094879 -95.30055765 -8.27814834 0 0 Z " fill="#B3B4B4" transform="translate(1448.8125,1198.6875)"/>
<path d="M0 0 C0.33 0.66 0.66 1.32 1 2 C-0.01955171 4.83498574 -1.1097738 7.56730955 -2.296875 10.33203125 C-2.82102997 11.57517342 -2.82102997 11.57517342 -3.35577393 12.84342957 C-4.09872492 14.60104236 -4.84548259 16.35705009 -5.59570312 18.11157227 C-6.7393235 20.78751816 -7.87063728 23.46840096 -9 26.15039062 C-9.72323162 27.85707897 -10.4471676 29.56346904 -11.171875 31.26953125 C-11.6783255 32.46821587 -11.6783255 32.46821587 -12.19500732 33.69111633 C-12.51834045 34.44507187 -12.84167358 35.1990274 -13.17480469 35.97583008 C-13.45539734 36.63376053 -13.73598999 37.29169098 -14.02508545 37.96955872 C-16.36834863 42.84984109 -18.73401605 45.885246 -23.09951782 49.14224243 C-24.16492149 49.94950098 -25.23003733 50.75713951 -26.29491043 51.56509781 C-27.14694479 52.20484 -27.14694479 52.20484 -28.01619196 52.85750628 C-46.25591484 66.60696406 -63.61790122 81.3879194 -80.625 96.625 C-81.36700087 97.2881893 -82.10900173 97.95137859 -82.87348747 98.63466454 C-119.70463107 131.66695602 -147.93761405 163.28882266 -150.76878881 214.47283316 C-151.96875652 239.80003657 -150.54487032 264.9358169 -148.49853516 290.18212891 C-148.38381406 291.61855787 -148.38381406 291.61855787 -148.26677537 293.08400559 C-147.52798973 302.23213886 -146.72596324 311.34764977 -145.46209538 320.43986714 C-141.80028995 347.00349243 -141.80028995 347.00349243 -147.59753418 355.02282715 C-151.52369615 359.38458654 -155.90044398 363.07663045 -161 366 C-161.33 366 -161.66 366 -162 366 C-167.04722411 335.51223392 -170.28141831 304.97166342 -172.125 274.125 C-172.19535713 272.98185522 -172.26571426 271.83871044 -172.33820343 270.66092491 C-175.83896707 212.18627071 -170.96784413 163.65467166 -131.22423935 118.26179123 C-115.42855411 100.58428192 -98.54202239 84.17923311 -81 68.25 C-80.03225804 67.36880147 -79.06451609 66.48760294 -78.06744862 65.57970142 C-52.88154902 42.68225391 -26.905956 20.84592114 0 0 Z " fill="#B5B6B6" transform="translate(2231,846)"/>
<path d="M0 0 C0.389514 44.29816322 0.68886695 88.59614445 0.8681106 132.895684 C0.88937141 138.13122377 0.911375 143.36676018 0.93383789 148.60229492 C0.93829717 149.64455081 0.94275645 150.68680671 0.94735085 151.76064611 C1.02122881 168.61438824 1.1552118 185.46713984 1.31159753 202.32029527 C1.47084179 219.62645543 1.56505496 236.93209857 1.59950441 254.23896128 C1.62277717 264.91013644 1.69613977 275.57851169 1.83457994 286.24882437 C1.92477689 293.57615836 1.95152896 300.90205531 1.92952342 308.22990351 C1.91868179 312.45255687 1.93471196 316.67033741 2.02649307 320.89211273 C2.60411937 348.7816348 2.60411937 348.7816348 -6.16778523 358.37804466 C-15.32492841 367 -15.32492841 367 -18 367 C-18.16019873 322.67570402 -18.28355577 278.35143868 -18.35745731 234.02691031 C-18.36621232 228.7947952 -18.37527257 223.56268066 -18.38452148 218.33056641 C-18.38635766 217.28894033 -18.38819383 216.24731426 -18.39008565 215.17412376 C-18.4205504 198.30503887 -18.47574547 181.43612085 -18.54006957 164.56713498 C-18.60551494 147.25983683 -18.64440823 129.95262612 -18.65861946 112.64520931 C-18.66822755 101.96427489 -18.69858042 91.28381212 -18.75541527 80.60302287 C-18.79239821 73.28021406 -18.80360499 65.95764932 -18.79450964 58.63475388 C-18.790023 54.40873315 -18.79693159 50.18353694 -18.83443832 45.95766258 C-18.8685418 42.08695492 -18.8702015 38.21762489 -18.84629226 34.34685338 C-18.84333813 32.94830759 -18.8521893 31.54967533 -18.87418228 30.15129936 C-19.04790103 18.42163586 -19.04790103 18.42163586 -14.62463474 13.29733276 C-13.44151821 12.17125314 -12.23470023 11.06926862 -11 10 C-10.04730138 9.01752546 -9.10131848 8.02846719 -8.1640625 7.03125 C-7.32617188 6.1959375 -6.48828125 5.360625 -5.625 4.5 C-4.77164062 3.6440625 -3.91828125 2.788125 -3.0390625 1.90625 C-1 0 -1 0 0 0 Z " fill="#888888" transform="translate(1827,1283)"/>
<path d="M0 0 C5.12573388 1.60743014 10.00629967 3.63755413 14.9375 5.75 C22.07590437 8.80085107 22.07590437 8.80085107 29.296875 11.6484375 C29.95695557 11.90012695 30.61703613 12.15181641 31.29711914 12.41113281 C33.06296845 13.07797298 34.8340438 13.73092812 36.60546875 14.3828125 C43.84938218 17.83388288 49.5509507 23.25704836 55.15014648 28.90963745 C55.82260092 29.58038303 56.49505535 30.25112862 57.18788719 30.94219983 C59.42039242 33.17143363 61.64571453 35.40769722 63.87109375 37.64404297 C65.47773484 39.25124868 67.0848174 40.85801318 68.69230652 42.46437073 C73.0412245 46.81271619 77.38395941 51.16718927 81.72559357 55.52280569 C86.26904047 60.07877662 90.81817248 64.62906378 95.36669922 69.17996216 C102.99590517 76.81467294 110.62161099 84.45286118 118.24462891 92.09375 C126.09351073 99.96101298 133.94450761 107.8261554 141.79833984 115.68847656 C142.28311834 116.1737805 142.76789683 116.65908444 143.26736557 117.15909456 C145.69956962 119.59390883 148.1318151 122.02868169 150.56408119 124.46343398 C170.71581601 144.63587445 190.86021724 164.81562719 211 185 C210.52516047 186.43639045 210.04929448 187.8724416 209.57299805 189.30834961 C209.17566719 190.5079557 209.17566719 190.5079557 208.77030945 191.73179626 C207.8709152 194.38009481 206.86997909 196.97349948 205.8125 199.5625 C205.46832031 200.40941406 205.12414063 201.25632812 204.76953125 202.12890625 C204.51558594 202.74636719 204.26164062 203.36382813 204 204 C200.8983764 202.61923245 198.78034006 201.03073859 196.38433456 198.63601685 C195.67969126 197.93658903 194.97504795 197.23716122 194.24905181 196.51653862 C193.48251352 195.74553888 192.71597522 194.97453915 191.9262085 194.18017578 C190.69601624 192.9546635 190.69601624 192.9546635 189.44097161 191.70439339 C187.1660462 189.43607019 184.89566688 187.16330756 182.62713957 184.88858891 C180.17950955 182.43643904 177.72613853 179.99004473 175.27349854 177.54290771 C170.47046269 172.7487717 165.6728575 167.94923627 160.87716839 163.14775229 C156.98123866 159.24730945 153.08336568 155.34881866 149.18408966 151.45172119 C148.62955937 150.89749737 148.07502908 150.34327355 147.50369485 149.77225506 C146.37726546 148.64646511 145.25083158 147.52067966 144.12439325 146.39489865 C133.55926771 135.83547786 123.0002843 125.26993227 112.4433842 114.70228887 C103.37685907 105.62682315 94.30509593 96.55662102 85.22949219 87.49023438 C74.69707934 76.96851309 64.16790374 66.44356977 53.64390969 55.91342735 C52.52282643 54.79170697 51.40173897 53.66999077 50.28064728 52.54827881 C49.72900518 51.99632815 49.17736307 51.4443775 48.60900454 50.87570107 C44.71348966 46.97845627 40.81565245 43.08354342 36.91692352 39.18951416 C32.17004747 34.44823437 27.42672487 29.70343424 22.68798897 24.95401812 C20.26825268 22.5290089 17.84691409 20.10565729 15.42124939 17.68657684 C12.79815423 15.0689008 10.18122451 12.44521761 7.56585693 9.81982422 C6.40266516 8.66332461 6.40266516 8.66332461 5.21597457 7.48346138 C4.52176225 6.78403357 3.82754993 6.08460575 3.11230087 5.36398315 C2.50691664 4.75827421 1.9015324 4.15256527 1.27780318 3.52850151 C0 2 0 2 0 0 Z " fill="#423D3E" transform="translate(1144,1446)"/>
<path d="M0 0 C2.15937612 0.00338947 4.31876604 0.00147592 6.47813416 -0.00531006 C12.31110933 -0.00873908 18.14109506 0.06157159 23.97337818 0.14557743 C30.0790808 0.22083439 36.18485973 0.22766097 42.29095459 0.24188232 C53.84035959 0.27910993 65.38839384 0.37748646 76.93719649 0.4980762 C90.09059739 0.63242541 103.24406539 0.6982389 116.39798212 0.75842142 C143.44413988 0.8836935 170.48908282 1.09462555 197.53417969 1.36230469 C197.53417969 2.02230469 197.53417969 2.68230469 197.53417969 3.36230469 C196.68082031 3.6678125 195.82746094 3.97332031 194.94824219 4.28808594 C194.35996202 4.50347425 193.77168186 4.71886255 193.16557503 4.94077778 C191.80047397 5.44019127 190.43266578 5.93225301 189.06255913 6.41776562 C184.67101642 8.02378842 180.58575316 9.81989259 176.49563599 12.09089661 C156.19451401 22.83283997 135.93612294 21.8170116 113.52176428 21.47763801 C108.12617055 21.40794128 102.73047763 21.40233989 97.33450317 21.38935852 C87.15972435 21.35543799 76.9862765 21.26554495 66.8120786 21.15451413 C55.21091846 21.03071302 43.60968805 20.97087081 32.0080297 20.91586435 C8.18268079 20.80149707 -15.64149454 20.60855271 -39.46582031 20.36230469 C-38.17785909 18.78812985 -36.87151415 17.22775662 -35.51478195 15.71245193 C-33.35470929 13.29311761 -33.35470929 13.29311761 -31.15016556 10.27347946 C-22.40351947 -0.65128862 -13.25793943 -0.29243812 0 0 Z " fill="#DADBDB" transform="translate(1993.4658203125,1225.6376953125)"/>
<path d="M0 0 C0.33 0.66 0.66 1.32 1 2 C-0.01955171 4.83498574 -1.1097738 7.56730955 -2.296875 10.33203125 C-2.82102997 11.57517342 -2.82102997 11.57517342 -3.35577393 12.84342957 C-4.09872492 14.60104236 -4.84548259 16.35705009 -5.59570312 18.11157227 C-6.7393235 20.78751816 -7.87063728 23.46840096 -9 26.15039062 C-9.72323162 27.85707897 -10.4471676 29.56346904 -11.171875 31.26953125 C-11.6783255 32.46821587 -11.6783255 32.46821587 -12.19500732 33.69111633 C-12.51834045 34.44507187 -12.84167358 35.1990274 -13.17480469 35.97583008 C-13.45539734 36.63376053 -13.73598999 37.29169098 -14.02508545 37.96955872 C-16.39189553 42.8988819 -19.27246838 46.52068237 -23.14421082 50.38471985 C-23.66130169 50.90351957 -24.17839256 51.42231929 -24.71115285 51.95684022 C-26.43838348 53.68735501 -28.17264603 55.41064217 -29.90698242 57.1340332 C-31.1492181 58.37570454 -32.39101316 59.61781684 -33.63240051 60.8603363 C-36.99955269 64.22806208 -40.37283382 67.58958759 -43.74724746 70.95003533 C-47.27422738 74.46450922 -50.79554098 77.98465109 -54.31745911 81.50419617 C-60.98572638 88.16624832 -67.65907534 94.82318597 -74.3342641 101.47830218 C-81.93426462 109.05594476 -89.52858408 116.63926998 -97.12243116 124.22307837 C-112.74197368 139.82171815 -128.36883898 155.41300371 -144 171 C-152.415 167.535 -152.415 167.535 -161 164 C-161 160.11457342 -159.41882081 159.05961666 -156.78612852 156.39888459 C-156.15968585 155.78118044 -155.53324317 155.16347629 -154.88781738 154.52705383 C-154.23036545 153.86703863 -153.57291352 153.20702342 -152.89553881 152.52700776 C-150.67767394 150.30417827 -148.44921238 148.09228103 -146.22070312 145.88012695 C-144.63387234 144.29414186 -143.04770082 142.70749692 -141.46214294 141.12023926 C-137.14459397 136.80182665 -132.81783248 132.49275061 -128.48941612 128.18523431 C-123.97169739 123.68622103 -119.46242663 119.17875721 -114.95227051 114.67216492 C-107.37745409 107.10562484 -99.79741987 99.54435176 -92.21337891 91.98706055 C-84.40095134 84.20215971 -76.59167316 76.41412189 -68.78662109 68.62182617 C-68.30571481 68.14170805 -67.82480852 67.66158994 -67.32932931 67.16692279 C-64.91684231 64.75835083 -62.50441721 62.34971687 -60.0920229 59.94105208 C-40.07093839 39.95108013 -20.03889849 19.97211321 0 0 Z " fill="#B5B6B6" transform="translate(1712,846)"/>
<path d="M0 0 C1.40636473 4.21909419 -0.30448926 6.96888233 -1.9375 10.88671875 C-2.41413086 12.05047783 -2.41413086 12.05047783 -2.90039062 13.23774719 C-3.57821583 14.88312288 -4.26114379 16.52640419 -4.94873047 18.16772461 C-5.98578526 20.65342885 -6.9956156 23.14899936 -8.00390625 25.64648438 C-8.66762642 27.24807829 -9.33294337 28.84901158 -10 30.44921875 C-10.29511475 31.18597336 -10.59022949 31.92272797 -10.89428711 32.68180847 C-15.41129931 43.27272184 -24.78428165 50.92476947 -32.81030273 58.92382812 C-33.99380124 60.10704408 -35.17707865 61.29048123 -36.3601532 62.47412109 C-39.55161727 65.66587049 -42.74614135 68.85454084 -45.94124866 72.04264259 C-49.28758954 75.38270566 -52.63107327 78.72562638 -55.97486877 82.0682373 C-62.29792141 88.38818963 -68.62351742 94.70558987 -74.95004469 101.02206373 C-82.15640737 108.21722478 -89.35990952 115.41524679 -96.56317985 122.61350346 C-111.37228585 137.41217454 -126.18495755 152.2072721 -141 167 C-142.44108183 166.5255702 -143.88165897 166.04960723 -145.32202148 165.57299805 C-146.52543434 165.17566719 -146.52543434 165.17566719 -147.75315857 164.77030945 C-151.62435118 163.44310576 -155.2876945 161.70883904 -159 160 C-155.02103877 155.23282888 -150.87081241 150.72837371 -146.47000122 146.3497467 C-145.84009116 145.71898222 -145.2101811 145.08821773 -144.56118286 144.43833917 C-142.4677941 142.34331446 -140.37087204 140.25186386 -138.27392578 138.16040039 C-136.76545588 136.65221279 -135.2572066 135.1438045 -133.74916077 133.63519287 C-129.66717136 129.55291718 -125.58211146 125.47372674 -121.49648523 121.3950913 C-117.22257904 117.12744674 -112.95151453 112.85696015 -108.68014526 108.58677673 C-100.59688385 100.50662035 -92.51107723 92.42901596 -84.42434871 84.35232967 C-75.21563618 75.15480399 -66.0097713 65.95443033 -56.80414224 56.75381863 C-37.87259073 37.83271276 -18.93747335 18.91517878 0 0 Z " fill="#B3B4B4" transform="translate(2229,1214)"/>
<path d="M0 0 C1.6500209 4.02753108 0.23035568 7.29726426 -1.17175293 11.17179871 C-1.55390441 12.23441191 -1.55390441 12.23441191 -1.94377613 13.31849205 C-10.55187168 36.5459727 -23.06949728 52.0908408 -40.73345375 69.12617898 C-44.23909881 72.52792135 -47.68604578 75.98836534 -51.14147949 79.44096375 C-56.91956155 85.19803071 -62.73534098 90.91441109 -68.58007812 96.60375977 C-75.32909995 103.17378847 -82.02521933 109.79416907 -88.6942296 116.44534141 C-95.84499922 123.57679387 -103.02578095 130.67734458 -110.21927452 137.76567817 C-112.27770725 139.79728467 -114.3310947 141.83388296 -116.38368225 143.8713932 C-119.59550622 147.05576856 -122.82734615 150.21837504 -126.07606506 153.36508751 C-127.26357303 154.52122949 -128.4444564 155.68422055 -129.61813354 156.85440063 C-131.21970379 158.44870383 -132.84353372 160.01618638 -134.47570801 161.57905579 C-135.83055676 162.90405326 -135.83055676 162.90405326 -137.21277618 164.25581837 C-140 166 -140 166 -143.63848114 165.8507719 C-147.08196156 164.97925622 -150.18533898 163.86260427 -153.4375 162.4375 C-154.48808594 161.98246094 -155.53867188 161.52742187 -156.62109375 161.05859375 C-157.79865234 160.53458984 -157.79865234 160.53458984 -159 160 C-155.02103877 155.23282888 -150.87081241 150.72837371 -146.47000122 146.3497467 C-145.84009116 145.71898222 -145.2101811 145.08821773 -144.56118286 144.43833917 C-142.4677941 142.34331446 -140.37087204 140.25186386 -138.27392578 138.16040039 C-136.76545588 136.65221279 -135.2572066 135.1438045 -133.74916077 133.63519287 C-129.66717136 129.55291718 -125.58211146 125.47372674 -121.49648523 121.3950913 C-117.22257904 117.12744674 -112.95151453 112.85696015 -108.68014526 108.58677673 C-100.59688385 100.50662035 -92.51107723 92.42901596 -84.42434871 84.35232967 C-75.21563618 75.15480399 -66.0097713 65.95443033 -56.80414224 56.75381863 C-37.87259073 37.83271276 -18.93747335 18.91517878 0 0 Z " fill="#B3B4B4" transform="translate(1969,850)"/>
<path d="M0 0 C4.1726742 0.83453484 7.37720363 1.85930794 11.25 3.5 C12.83554688 4.16515625 12.83554688 4.16515625 14.453125 4.84375 C17 6 17 6 18 7 C18.13450471 9.26448828 18.19764876 11.533214 18.23464966 13.8013916 C18.2474987 14.52120728 18.26034775 15.24102296 18.27358615 15.98265123 C18.31529368 18.41350954 18.34944147 20.84441113 18.38330078 23.27539062 C18.41083057 25.01148289 18.43856567 26.7475719 18.4664917 28.48365784 C18.7125771 44.39394965 18.85170835 60.30568649 18.96293831 76.21743011 C19.03939892 86.91131457 19.14769958 97.60288082 19.33740234 108.29541016 C19.50290954 117.62508609 19.60758152 126.95314468 19.64017475 136.28426695 C19.65937508 141.2191035 19.70739586 146.14959679 19.82797623 151.08308411 C20.62619349 185.09204957 20.62619349 185.09204957 11.84805107 194.83850861 C3.01753013 203 3.01753013 203 0 203 C0 136.01 0 69.02 0 0 Z " fill="#888888" transform="translate(2069,1009)"/>
<path d="M0 0 C63.69 0 127.38 0 193 0 C190.9551353 6.81621566 189.26291039 11.92423583 186 18 C166.97179099 18.09351907 147.94362874 18.16401629 128.91523743 18.20724869 C120.07964385 18.22785748 111.24419322 18.25594581 102.40869141 18.30175781 C94.7059774 18.34167722 87.00336695 18.36744505 79.30055237 18.37635398 C75.22345151 18.38156012 71.14664686 18.39376106 67.06964111 18.42292023 C63.22827551 18.4501702 59.38732673 18.45842582 55.54587364 18.45243073 C54.1398358 18.4535267 52.73378331 18.46142372 51.32782936 18.4768219 C43.36623122 18.55970492 37.82345482 18.22094479 31 14 C28.51162643 12.969019 25.97668498 12.08508133 23.4375 11.1875 C15.38924499 8.26521693 7.69744217 4.73812565 0 1 C0 0.67 0 0.34 0 0 Z " fill="#DADBDB" transform="translate(1146,1446)"/>
<path d="M0 0 C1.44577134 0.47402281 2.89087537 0.95008123 4.33569336 1.42700195 C5.14050644 1.69188919 5.94531952 1.95677643 6.77452087 2.22969055 C10.38833508 3.48054714 13.6227288 5.21925701 17 7 C15.40860003 10.87159757 12.92812504 13.323446 9.98950195 16.26446533 C9.47467664 16.78241063 8.95985132 17.30035593 8.42942524 17.83399653 C6.70377443 19.56762227 4.97106567 21.2940144 3.23828125 23.02050781 C1.99945222 24.26204685 0.76104908 25.50401098 -0.47695923 26.74636841 C-3.8399584 30.11849067 -7.20925978 33.48424949 -10.57999039 36.8486414 C-14.10278698 40.36637988 -17.62070746 43.88898919 -21.1394043 47.41082764 C-27.047349 53.32241157 -32.95950012 59.2297641 -38.87402344 65.13476562 C-45.72039594 71.97024362 -52.55951993 78.81291057 -59.39494228 85.65933728 C-65.2579573 91.53141439 -71.12484354 97.39960229 -76.99501133 103.26452899 C-80.50374824 106.77014155 -84.01110483 110.27710638 -87.51498413 113.78757477 C-90.80675668 117.08510484 -94.10334518 120.37774174 -97.40378952 123.66659164 C-98.61734182 124.87748923 -99.82917651 126.09011087 -101.03920364 127.3045311 C-102.68474191 128.95549407 -104.33624986 130.6002363 -105.98950195 132.24346924 C-106.91422806 133.16744129 -107.83895416 134.09141335 -108.79170227 135.04338455 C-111 137 -111 137 -113 137 C-115.03519377 127.79767036 -115.97613435 118.12256714 -111.08609009 109.70574951 C-105.15025753 101.54245851 -97.48912322 94.65350633 -90.18201256 87.74855804 C-86.97160196 84.68965944 -83.8303986 81.56118645 -80.68078613 78.43994141 C-74.72479366 72.55812396 -68.71042733 66.74009123 -62.67176676 60.94330978 C-55.79233682 54.33348723 -48.98210182 47.65419129 -42.17638874 40.96862221 C-28.19243469 27.23456885 -14.12521529 13.58862919 0 0 Z " fill="#B3B4B4" transform="translate(1550,1429)"/>
<path d="M0 0 C59.07 0 118.14 0 179 0 C177.02 2.31 175.04 4.62 173 7 C172.19213893 8.00516065 171.38427786 9.01032129 170.55193615 10.04594135 C165.83870514 15.43734409 162.25071747 18.65375018 154.7928009 19.32279968 C152.02045895 19.35457483 149.29006262 19.32835561 146.52270508 19.2487793 C144.99401068 19.24567009 143.46529991 19.24743065 141.93661499 19.25364685 C137.81816046 19.25678203 133.70328523 19.19247553 129.58565736 19.11533332 C125.27105385 19.04620458 120.95635299 19.04007914 116.64128113 19.02705383 C108.48456517 18.99296924 100.32948599 18.90285014 92.17348832 18.79220945 C82.88222744 18.66892541 73.59088516 18.60869492 64.29900897 18.55355966 C45.19841401 18.43881999 26.09933895 18.24554933 7 18 C5.83121737 15.18836219 4.66488052 12.37575392 3.5 9.5625 C2.99919922 8.35883789 2.99919922 8.35883789 2.48828125 7.13085938 C2.01455078 5.98520508 2.01455078 5.98520508 1.53125 4.81640625 C1.23798828 4.10943604 0.94472656 3.40246582 0.64257812 2.67407227 C0 1 0 1 0 0 Z " fill="#DADBDB" transform="translate(1347,1211)"/>
<path d="M0 0 C43.56 0 87.12 0 132 0 C130.02 2.31 128.04 4.62 126 7 C124.78807824 8.51851824 123.57751207 10.03812041 122.368927 11.55929565 C115.72206065 19.42341952 109.79768384 25.75962237 99.18043327 26.91163826 C93.63992588 27.14438328 88.15498131 26.98917563 82.6171875 26.7578125 C80.22162536 26.72415808 77.82593765 26.6985746 75.4302063 26.68063354 C69.18298452 26.61253226 62.94353211 26.43633926 56.69934082 26.23596191 C50.30453594 26.05041888 43.90845055 25.9693234 37.51171875 25.87890625 C25.00388263 25.68697295 12.50380841 25.37094822 0 25 C0 16.75 0 8.5 0 0 Z " fill="#23994A" transform="translate(1979,1308)"/>
<path d="M0 0 C5.86665101 4.86328136 11.22970142 10.11532776 16.58984375 15.52734375 C17.97049267 16.91377998 19.35114457 18.30021326 20.73196507 19.68647861 C23.6204724 22.58803187 26.50439022 25.49414641 29.38909912 28.3994751 C31.7701747 30.79721629 34.15228214 33.19391132 36.53700256 35.58802795 C38.31692313 37.37540157 40.09459279 39.16502057 41.86961365 40.95726013 C46.1138848 45.21867722 50.42820702 49.29592158 54.98835754 53.21543884 C58.90337338 56.68851388 62.55467793 60.43339414 66.2421875 64.14453125 C67.51656174 65.42102791 67.51656174 65.42102791 68.81668091 66.72331238 C71.50516479 69.41734938 74.19013505 72.11485687 76.875 74.8125 C78.70028835 76.64281 80.52580699 78.47289037 82.3515625 80.30273438 C86.34741206 84.30837712 90.34105686 88.31620273 94.33273315 92.32600403 C95.55381084 93.55201001 96.77645568 94.77645568 98 96 C97.9765625 97.85546875 97.9765625 97.85546875 97.625 100.1875 C96.75972472 107.11988195 96.91632745 114.02728713 97 121 C95.36114929 119.60014836 93.72321773 118.19920688 92.08984375 116.79296875 C90.65114965 115.55864988 89.20539344 114.33253049 87.75390625 113.11328125 C87.03074219 112.49839844 86.30757812 111.88351562 85.5625 111.25 C84.88316406 110.67765625 84.20382812 110.1053125 83.50390625 109.515625 C82 108 82 108 82 106 C81.34 106 80.68 106 80 106 C80 105.34 80 104.68 80 104 C79.34 104 78.68 104 78 104 C78 103.34 78 102.68 78 102 C77.34 102 76.68 102 76 102 C76 101.34 76 100.68 76 100 C75.34 100 74.68 100 74 100 C74 99.34 74 98.68 74 98 C73.34 98 72.68 98 72 98 C72 97.34 72 96.68 72 96 C71.34 96 70.68 96 70 96 C70 95.34 70 94.68 70 94 C69.34 94 68.68 94 68 94 C68 93.34 68 92.68 68 92 C67.34 92 66.68 92 66 92 C66 91.34 66 90.68 66 90 C65.34 90 64.68 90 64 90 C64 89.34 64 88.68 64 88 C63.34 88 62.68 88 62 88 C62 87.34 62 86.68 62 86 C61.34 86 60.68 86 60 86 C60 85.34 60 84.68 60 84 C59.34 84 58.68 84 58 84 C58 83.34 58 82.68 58 82 C57.34 82 56.68 82 56 82 C56 81.34 56 80.68 56 80 C55.34 80 54.68 80 54 80 C54 79.34 54 78.68 54 78 C53.34 78 52.68 78 52 78 C52 77.34 52 76.68 52 76 C51.34 76 50.68 76 50 76 C50 75.34 50 74.68 50 74 C49.34 74 48.68 74 48 74 C48 73.34 48 72.68 48 72 C47.34 72 46.68 72 46 72 C46 71.34 46 70.68 46 70 C45.34 70 44.68 70 44 70 C44 69.34 44 68.68 44 68 C43.34 68 42.68 68 42 68 C42 67.34 42 66.68 42 66 C41.34 66 40.68 66 40 66 C40 65.34 40 64.68 40 64 C39.34 64 38.68 64 38 64 C38 63.34 38 62.68 38 62 C37.34 62 36.68 62 36 62 C36 61.34 36 60.68 36 60 C35.39664133 59.74568773 34.79328266 59.49137547 34.1716404 59.22935677 C31.72580789 57.84478096 30.79591848 56.65653296 29.25375366 54.33029175 C18.63781458 39.00463762 5.2275027 21.62792796 -14.04187012 17.89660645 C-33.60792377 14.65378535 -54.04291471 15.94405342 -73.76280427 16.81760478 C-82.31271398 17.18843423 -90.86248271 17.33164859 -99.41890979 17.46094537 C-116.95673967 17.73080381 -134.47538187 18.27024641 -152 19 C-152 18.67 -152 18.34 -152 18 C-104.15 17.67 -56.3 17.34 -7 17 C-4.69 11.39 -2.38 5.78 0 0 Z " fill="#727071" transform="translate(1339,1446)"/>
<path d="M0 0 C1.4453125 1.43359375 1.4453125 1.43359375 3.125 3.4375 C5.12669958 5.81504613 7.13285196 8.13992827 9.2734375 10.39453125 C10.00820312 11.17183594 10.74296875 11.94914062 11.5 12.75 C12.1909375 13.46671875 12.881875 14.1834375 13.59375 14.921875 C15 17 15 17 14.73770809 18.94321823 C13.49294453 22.41370613 10.83859298 24.85346447 8.36743164 27.51269531 C7.77816391 28.15701508 7.18889618 28.80133484 6.58177185 29.46517944 C1.09170036 35.43574659 -4.50767958 41.30489214 -10.1365118 47.14451981 C-13.9074738 51.05835525 -17.63902347 54.99679843 -21.29174805 59.02148438 C-47.845843 88.21288196 -47.845843 88.21288196 -64.18558979 89.18871689 C-71.55382849 89.3159257 -78.78560294 88.46194566 -86 87 C-84.01149756 83.44222873 -81.90086691 80.65887957 -79.00683594 77.7956543 C-78.20880554 77.00100266 -77.41077515 76.20635101 -76.58856201 75.38761902 C-75.7291803 74.54169693 -74.86979858 73.69577484 -73.984375 72.82421875 C-73.09518372 71.94022903 -72.20599243 71.05623932 -71.28985596 70.14546204 C-68.92868906 67.79907668 -66.56357493 65.45683568 -64.19598389 63.11694336 C-60.87730895 59.83623056 -57.56366668 56.5504581 -54.25299072 53.26167297 C-52.49387673 51.51468991 -50.73209692 49.77038567 -48.96722412 48.02922058 C-44.7023271 43.79868371 -40.62237639 39.49641753 -36.70797729 34.94075012 C-33.67012418 31.48888117 -30.4157253 28.25307596 -27.16796875 25 C-26.45014725 24.2788501 -25.73232574 23.5577002 -24.99275208 22.81469727 C-23.49069473 21.30761782 -21.98731744 19.80185283 -20.48266602 18.29736328 C-18.17110539 15.98358969 -15.86769116 13.66189869 -13.56445312 11.33984375 C-12.09944695 9.87190803 -10.6339693 8.40444265 -9.16796875 6.9375 C-8.47841599 6.24076172 -7.78886322 5.54402344 -7.07841492 4.82617188 C-6.44047501 4.19130859 -5.8025351 3.55644531 -5.14526367 2.90234375 C-4.58457687 2.34023193 -4.02389008 1.77812012 -3.44621277 1.19897461 C-2 0 -2 0 0 0 Z " fill="#26984C" transform="translate(1439,1329)"/>
<path d="M0 0 C11.67375 -0.37125 23.3475 -0.7425 35.375 -1.125 C39.02224121 -1.28887207 42.66948242 -1.45274414 46.42724609 -1.62158203 C72.45219143 -2.29095784 72.45219143 -2.29095784 82.00576782 6.47073364 C91 16.1983865 91 16.1983865 91 19 C66.91 19 42.82 19 18 19 C18.33 25.105 18.66 31.21 19 37.5 C19.55683212 58.67794885 19.55683212 58.67794885 12.375 66.46484375 C3.78044554 74 3.78044554 74 0 74 C0 49.58 0 25.16 0 0 Z " fill="#DADBDB" transform="translate(1736,1227)"/>
<path d="M0 0 C32.67 0 65.34 0 99 0 C93.94941861 10.10116278 85.29241088 20.79503701 75 26 C63.62855358 29.74849478 50.4728762 28.19087236 38.722229 27.51062012 C34.34587923 27.28209923 29.96658092 27.18438128 25.5859375 27.07421875 C17.048497 26.84092499 8.52846882 26.45557379 0 26 C0 17.42 0 8.84 0 0 Z " fill="#13468F" transform="translate(1979,1340)"/>
<path d="M0 0 C3.11966041 1.48863736 5.24012613 3.00288692 7.671875 5.4765625 C8.33574219 6.146875 8.99960938 6.8171875 9.68359375 7.5078125 C10.70646484 8.55582031 10.70646484 8.55582031 11.75 9.625 C12.44738281 10.33140625 13.14476562 11.0378125 13.86328125 11.765625 C15.58012488 13.50598703 17.29211832 15.25084981 19 17 C17.31472395 20.62822218 15.4235087 22.62620613 12.375 25.25 C9.10022714 28.12013139 5.92377853 31.01572983 2.875 34.125 C0.35707997 36.68328749 -2.21333257 39.10019658 -4.9375 41.4375 C-8.66616873 44.64079858 -12.10939297 48.06660506 -15.53125 51.59375 C-16.3459375 52.3878125 -17.160625 53.181875 -18 54 C-18.72509766 54.90310913 -18.72509766 54.90310913 -19.46484375 55.82446289 C-23.19858893 59.93189442 -26.21207549 61.3895319 -31.82458496 61.66110229 C-35.55605255 61.69968166 -39.27190139 61.58448455 -43 61.4375 C-44.55331501 61.40233733 -46.10670674 61.37040703 -47.66015625 61.34179688 C-51.4420184 61.26516327 -55.22015399 61.14466941 -59 61 C-59 58 -59 58 -56.52514648 55.44873047 C-55.33356759 54.37363737 -54.13578128 53.30540458 -52.93359375 52.2421875 C-46.07526087 46.00979138 -39.45554916 39.56717598 -32.91015625 33.0078125 C-32.18944506 32.28639698 -32.18944506 32.28639698 -31.45417404 31.55040741 C-28.49096114 28.58383322 -25.53149206 25.61355082 -22.57330322 22.64196777 C-20.02017473 20.07842172 -17.46404411 17.51787247 -14.90820312 14.95703125 C-9.93594487 9.97419888 -4.9668892 4.98818477 0 0 Z " fill="#174B93" transform="translate(1460,1355)"/>
<path d="M0 0 C22.11 0 44.22 0 67 0 C67 8.58 67 17.16 67 26 C44.89 26 22.78 26 0 26 C0 17.42 0 8.84 0 0 Z " fill="#13468F" transform="translate(1737,1340)"/>
<path d="M0 0 C22.11 0 44.22 0 67 0 C67 8.25 67 16.5 67 25 C44.89 25 22.78 25 0 25 C0 16.75 0 8.5 0 0 Z " fill="#239A4A" transform="translate(1737,1308)"/>
<path d="M0 0 C0.66 0 1.32 0 2 0 C2 0.66 2 1.32 2 2 C2.66 2 3.32 2 4 2 C4 2.66 4 3.32 4 4 C4.66 4 5.32 4 6 4 C6 4.66 6 5.32 6 6 C6.66 6 7.32 6 8 6 C8 6.66 8 7.32 8 8 C8.66 8 9.32 8 10 8 C10 8.66 10 9.32 10 10 C10.66 10 11.32 10 12 10 C12 10.66 12 11.32 12 12 C12.66 12 13.32 12 14 12 C14 12.66 14 13.32 14 14 C14.66 14 15.32 14 16 14 C16 14.66 16 15.32 16 16 C16.66 16 17.32 16 18 16 C20.77706193 53.38352592 20.77706193 53.38352592 14.5078125 62.21875 C10.89886217 66.13836089 6.80625883 69.63631152 2 72 C1.34 72 0.68 72 0 72 C0 48.24 0 24.48 0 0 Z " fill="#878888" transform="translate(1736,1229)"/>
<path d="M0 0 C0.33 0.99 0.66 1.98 1 3 C-0.68429712 4.68429712 -2.38926514 6.19170797 -4.21173191 7.71924782 C-7.84592948 10.82185777 -11.24338078 14.10594149 -14.61228943 17.49203491 C-15.23897036 18.11786142 -15.86565129 18.74368793 -16.51132256 19.38847888 C-18.59252771 21.46804823 -20.6701589 23.55115045 -22.74780273 25.63427734 C-24.24613824 27.13289516 -25.74469445 28.63129234 -27.24345398 30.12948608 C-31.29887104 34.18461687 -35.35120291 38.24281798 -39.40297961 42.30158567 C-43.64259683 46.54746476 -47.88505631 50.79050195 -52.12721252 55.03384399 C-60.154245 63.06398143 -68.17872547 71.09666404 -76.20228773 79.13026869 C-85.33935496 88.27852298 -94.47927036 97.42392944 -103.61942375 106.56910014 C-122.41611558 125.37623746 -141.20923549 144.18694065 -160 163 C-160 159.12437942 -158.43862498 158.07952782 -155.81230164 155.42505771 C-155.18974991 154.81124451 -154.56719818 154.1974313 -153.92578125 153.5650177 C-153.27241287 152.90908605 -152.61904449 152.2531544 -151.94587708 151.57734603 C-149.74183131 149.36833574 -147.5271901 147.17025858 -145.3125 144.97192383 C-143.73552131 143.39579083 -142.15920188 141.81899797 -140.58349609 140.24159241 C-136.29280561 135.95003829 -131.99290305 131.66782106 -127.69134521 127.3871634 C-123.20165365 122.91617743 -118.72041018 118.43674077 -114.23828125 113.95817566 C-106.71054322 106.43871393 -99.17758756 98.92451935 -91.640625 91.41430664 C-83.87670001 83.67790846 -76.11592449 75.93837326 -68.359375 68.19458008 C-67.64249606 67.4788834 -67.64249606 67.4788834 -66.91113472 66.74872819 C-64.51363179 64.35514031 -62.11619076 61.96149042 -59.71878052 59.5678097 C-39.82210991 39.70225157 -19.91448452 19.84769907 0 0 Z " fill="#989D9C" transform="translate(1971,846)"/>
</svg>
