<?xml version="1.0" encoding="UTF-8"?>
<svg width="200" height="200" version="1.1" xmlns="http://www.w3.org/2000/svg">
 <g>
  <circle cx="88.358" cy="99.998" r="27.654" fill="#ffffff"/>
  <g stroke="#fff" stroke-width="5">
   <path d="m88.358 44.442v111.29"/>
   <path d="m77.567 59.814 21.582 80.547"/>
   <path d="m60.536 51.897 55.645 96.38"/>
   <path d="m58.876 70.605 58.964 58.964"/>
   <path d="m40.168 72.265 96.38 55.645"/>
   <path d="m48.085 89.296 80.547 21.582"/>
   <path d="m32.713 100.09 165.73 1e-5"/>
   <path d="m48.085 110.88 80.547-21.582"/>
   <path d="m40.168 127.91 96.38-55.645"/>
   <path d="m58.876 129.57 58.964-58.964"/>
   <path d="m60.536 148.28 55.645-96.38"/>
   <path d="m77.567 140.36 21.582-80.547"/>
  </g>
 </g>
 <path d="m153.11 110.09-1e-5 56.202h-132.43v-132.43h132.43v56.231" fill="none" stroke="#fff" stroke-width="5"/>
</svg>
