<?xml version="1.0" encoding="UTF-8" standalone="no"?>
<!-- Created with Inkscape (http://www.inkscape.org/) -->

<svg
   width="53.710415mm"
   height="53.710415mm"
   viewBox="0 0 53.710415 53.710415"
   version="1.1"
   id="svg8478"
   inkscape:version="1.2.1 (9c6d41e410, 2022-07-14)"
   sodipodi:docname="ISO_7000_-_Ref-No_0423.svg"
   xmlns:inkscape="http://www.inkscape.org/namespaces/inkscape"
   xmlns:sodipodi="http://sodipodi.sourceforge.net/DTD/sodipodi-0.dtd"
   xmlns="http://www.w3.org/2000/svg"
   xmlns:svg="http://www.w3.org/2000/svg">
  <sodipodi:namedview
     id="namedview8480"
     pagecolor="#505050"
     bordercolor="#eeeeee"
     borderopacity="1"
     inkscape:showpageshadow="0"
     inkscape:pageopacity="0"
     inkscape:pagecheckerboard="0"
     inkscape:deskcolor="#505050"
     inkscape:document-units="mm"
     showgrid="false"
     inkscape:zoom="0.74564394"
     inkscape:cx="227.32029"
     inkscape:cy="293.70587"
     inkscape:window-width="1920"
     inkscape:window-height="1017"
     inkscape:window-x="-8"
     inkscape:window-y="-8"
     inkscape:window-maximized="1"
     inkscape:current-layer="layer1" />
  <defs
     id="defs8475" />
  <g
     inkscape:label="Ebene 1"
     inkscape:groupmode="layer"
     id="layer1"
     transform="translate(-27.789955,-71.080276)">
    <path
       id="path5948"
       style="color:#ffffff;fill:#ffffff;-inkscape-stroke:none"
       d="m 54.98615,78.794641 c -0.74356,0.002 -1.49404,0.10539 -2.23087,0.30076 -3.48309,0.92374 -6.73434,3.85297 -7.90753,7.83363 -0.51768,-0.27341 -1.06323,-0.58043 -1.73116,-0.71469 -0.73623,-0.14798 -1.6001,-0.0195 -2.49029,0.55087 l -0.006,0.002 -0.004,0.002 c -3.27585,2.17369 -5.46942,5.49819 -5.74487,9.83557 -4.17695,4.077519 -3.93003,9.840199 -1.13171,13.676169 2.38281,3.2664 6.67636,5.14792 11.45253,3.57342 2.42369,3.24154 5.72132,3.82334 8.53178,2.69183 2.73656,-1.10177 5.06664,-3.67625 6.21616,-6.72052 h 1.14877 0.004 c 2.02461,-0.0236 3.68252,0.97077 4.57647,1.6738 l 3.45095,3.45095 0.89452,-0.89452 -3.51968,-3.51916 -0.0289,-0.0217 c -1.02951,-0.81225 -2.94,-1.98345 -5.38882,-1.95492 h -9.87072 c 0.13967,-0.67394 0.13003,-1.32513 0.12248,-1.92184 -0.002,-0.16189 -0.003,-0.31909 -0.003,-0.47284 h 3.98166 v -4.26537 l -4.75785,-4.750099 -0.0253,-0.0217 c -0.86478,-0.69741 -1.92685,-0.54891 -2.65048,-0.18965 l -5.64824,2.67994 -0.002,0.002 c -1.07545,0.523449 -1.67143,0.13463 -1.94923,-0.40256 -0.27749,-0.53659 -0.23475,-1.26633 0.71468,-1.80248 l 7.91993,-3.68349 c 0.58764,-0.27143 1.55926,-0.11621 1.9203,0.17932 l 5.43947,5.43791 0.89452,-0.89504 -4.51808,-4.51807 c 0.45624,-0.30247 0.82647,-0.38691 1.13689,-0.38189 0.42393,0.007 0.80044,0.20118 1.14463,0.47439 l 3.92379,3.92379 0.89452,-0.89452 -3.1564,-3.15639 c 0.47425,-0.32448 0.85691,-0.41496 1.17616,-0.4098 0.42392,0.007 0.79993,0.20118 1.14412,0.47439 l 3.41426,3.42408 0.89452,-0.89452 -2.54197,-2.54713 c 0.4781,-0.32912 0.86332,-0.42119 1.18443,-0.41599 0.42392,0.007 0.80045,0.2017 1.14463,0.4749 l 13.71131,13.803299 0.89452,-0.89452 -6.96599,-7.013009 c 2.01985,-4.33062 0.90045,-9.21829 -2.08876,-12.46436 -1.66182,-1.80463 -3.9206,-3.10126 -6.52621,-3.52795 -0.87631,-2.1869 -2.26293,-3.65277 -3.89176,-4.42918 -0.83662,-0.39879 -1.72911,-0.61496 -2.63911,-0.6718 -0.17063,-0.0106 -0.34156,-0.0159 -0.51315,-0.0155 z m -0.002,1.26452 c 0.91437,-0.003 1.79871,0.17927 2.60863,0.56534 1.18174,0.56331 2.22835,1.56063 2.99258,3.14348 -0.57967,-0.0214 -1.17302,-0.001 -1.77767,0.0656 -1.31933,0.14585 -2.69214,0.51014 -4.09381,1.12913 l 0.5116,1.156 c 5.16846,-2.28245 9.64389,-0.81768 12.40028,2.17558 2.56927,2.79005 3.58853,6.91064 2.06034,10.64431 l -5.85494,-5.89421 -0.0274,-0.0212 c -0.4764,-0.38069 -1.12516,-0.7431 -1.92392,-0.75603 -0.65999,-0.0107 -1.37623,0.22975 -2.10633,0.7767 l -0.0382,-0.0382 -0.0274,-0.0238 c -0.4764,-0.38068 -1.12464,-0.74053 -1.92339,-0.75345 l -5.2e-4,-5.1e-4 c -0.66067,-0.0107 -1.37914,0.22852 -2.11047,0.77618 -0.47122,-0.36544 -1.10143,-0.70273 -1.87172,-0.7152 -0.64618,-0.0104 -1.34768,0.21915 -2.0624,0.74207 l -0.0744,-0.0744 -0.0232,-0.0196 c -0.43069,-0.35725 -0.97182,-0.57223 -1.54306,-0.63459 -0.57125,-0.0624 -1.17269,0.028 -1.72083,0.28112 l -7.98401,3.71502 -0.0217,0.0119 c -1.43712,0.80913 -1.79606,2.37937 -1.22267,3.48816 0.57314,1.108289 2.07931,1.710299 3.62511,0.959109 h 0.002 l 5.65599,-2.683559 0.004,-0.002 c 0.47932,-0.23797 0.83959,-0.31529 1.28313,0.0367 l 4.32429,4.316529 v 2.47478 H 51.4313 c 0.0137,-0.061 0.0287,-0.12117 0.046,-0.17983 0.16062,-0.54391 0.45323,-1.0129 1.18959,-1.49397 l -0.6935,-1.05885 c -0.94677,0.61852 -1.47431,1.40118 -1.70894,2.19573 -0.23464,0.79457 -0.20807,1.57113 -0.19896,2.29082 0.009,0.71969 0.002,1.38018 -0.1819,1.97249 -0.1841,0.59232 -0.52449,1.14207 -1.31826,1.70894 l 0.73432,1.02939 c 0.68498,-0.48917 1.16014,-1.03918 1.47278,-1.60868 v 0.0698 h 7.80418 c -1.09085,2.53282 -3.1284,4.6631 -5.32371,5.54695 -2.30762,0.92906 -4.73401,0.63169 -6.83318,-1.9973 0.48236,-0.21661 0.96814,-0.46804 1.45624,-0.75861 l -0.64647,-1.08572 c -5.3444,3.18157 -9.97604,1.42038 -12.46694,-1.99419 -2.25595,-3.0925 -2.68542,-7.52564 0.10852,-11.051519 0.0481,0.79954 0.15624,1.628779 0.33073,2.487179 l 1.24024,-0.25218 c -1.24044,-6.102439 0.92244,-10.269739 4.8674,-12.890679 0.67525,-0.43209 1.10203,-0.46807 1.55649,-0.37672 0.455,0.0914 0.95782,0.37371 1.5627,0.68522 0.60488,0.31153 1.32362,0.64301 2.21278,0.6935 0.88916,0.0505 1.91079,-0.19455 3.08612,-0.89865 l -0.64854,-1.08366 c -1.01493,0.60801 -1.75145,0.75523 -2.36523,0.72037 -0.24363,-0.0138 -0.47383,-0.0585 -0.69815,-0.12557 1.00298,-3.60996 3.9942,-6.31007 7.06366,-7.12411 0.63984,-0.16969 1.27917,-0.25889 1.90479,-0.26097 z"
       inkscape:label="1" />
  </g>
</svg>
